<svg height="511pt" viewBox="-18 0 511 511.98654" width="511pt" xmlns="http://www.w3.org/2000/svg"><path d="m475.347656 203.921875c1.632813 32.605469-.824218 65.289063-7.3125 97.289063-11.886718-33.710938-37.066406-83.757813-87.03125-115.632813-50.992187-32.527344-115.65625-38.214844-191.496094-17.097656-21.148437 3.582031-42.765624 3.324219-63.820312-.765625-.445312-.035156-.894531-.035156-1.34375 0-.636719-.074219-1.28125-.074219-1.917969 0-.609375.117187-1.203125.300781-1.773437.539062-.457032.105469-.90625.242188-1.34375.410156-23.671875 12.863282-74.925782 51.246094-75.347656 142.265626-23.84375-34.023438-61.257813-108.144532-33.828126-212.71875 5.367188 6.5625 11.296876 12.648437 17.71875 18.183593 61.566407 52.058594 148.636719 14.429688 205.714844-10.257812 133.660156-47.496094 204.617188 26.167969 240.601563 96.3125.335937.535156.730469 1.027343 1.179687 1.472656zm-248.511718-114.855469c-43.152344 18.652344-104.089844 44.9375-153.820313 30.902344-6.132813-26.402344.429687-62.636719 19.769531-108.113281 9.507813 15.898437 26.320313 37.558593 49.746094 43.136719 18.15625 4.316406 36.570312-1.527344 54.726562-17.371094 57.527344-50.25 138.570313-50.148438 201.574219.226562 37.0625 30.988282 62.074219 74.003906 70.664063 121.546875-40.238282-57.089843-114.941406-115.703125-242.660156-70.328125zm0 0"/><path d="m105.921875 483.5625c28.40625-5.667969 52.277344-24.796875 64-51.28125 1.351563-2.808594 2.625-5.660156 3.886719-8.511719 2.71875-6.925781 6.261718-13.503906 10.550781-19.585937 4.710937-6.300782 12.097656-10.046875 19.96875-10.121094 13.746094.4375 26.691406 6.585938 35.710937 16.972656 5.148438 5.292969 9.28125 11.492188 12.1875 18.285156-.839843 4.828126 2.28125 9.460938 7.070313 10.496094 4.792969 1.039063 9.550781-1.886718 10.785156-6.628906 4.964844-15.636719 15.953125-28.652344 30.535157-36.171875 8.207031-4.59375 18.058593-5.203125 26.773437-1.664063 10.96875 4.730469 17.527344 18.691407 23.351563 31.015626l2.675781 5.601562c6.859375 16.160156 18.113281 30.070312 32.484375 40.148438 8.300781 5.105468 17.398437 8.769531 26.917968 10.84375l1.050782.246093 2.359375.546875c-29.457031 20.8125-92.070313 52.371094-148.664063-2.15625-3.539062-3.414062-9.148437-3.414062-12.6875 0-56.914062 54.792969-119.664062 22.828125-148.957031 1.964844zm0 0"/></svg>